# xmcd
#
# Track frame offsets:
#   150
#   17033
#   32404
#   47672
#   61828
#   83894
#   99449
#   119064
#   134783
#   146425
#   162199
#   174298
#   194909
#   208876
#
# Disc length: 3055 seconds
#
# Revision: 0
# Processed by: cddbd v1.4PL0 Copyright (c) Steve Scherf et al.
# Submitted via: uFREEDB ActiveX Control 1.5
#
DISCID=c90bed0e
DTITLE=Sandy and Júnior - Nascemos pra cantar
DYEAR=1981
DGENRE=Country
TTITLE0=Inesquecível
TTITLE1=Primeiro Amor
TTITLE2=Sábadp à Noite
TTITLE3=|Abre a porta Mariquinha
TTITLE4=Não Ter
TTITLE5=Etc. e Tal
TTITLE6=Com Você
TTITLE7=Dig Dig Joe
TTITLE8=Sphish Splash
TTITLE9=Vai ter Que Rebolar
TTITLE10=Tô Ligado Em Você
TTITLE11=Como Eu Te Amo
TTITLE12=Nascemos Pra Cantar
TTITLE13=Vamos Construir
EXTD=
EXTT0=
EXTT1=
EXTT2=
EXTT3=
EXTT4=
EXTT5=
EXTT6=
EXTT7=
EXTT8=
EXTT9=
EXTT10=
EXTT11=
EXTT12=
EXTT13=
PLAYORDER=
